<?xml version="1.0" standalone="no"?>
<!DOCTYPE svg PUBLIC "-//W3C//DTD SVG 20010904//EN"
 "http://www.w3.org/TR/2001/REC-SVG-20010904/DTD/svg10.dtd">
<svg version="1.0" xmlns="http://www.w3.org/2000/svg"
 width="204.000000pt" height="192.000000pt" viewBox="0 0 204.000000 192.000000"
 preserveAspectRatio="xMidYMid meet">

<g transform="translate(0.000000,192.000000) scale(0.100000,-0.100000)"
fill="#00000070" stroke="none">
<path d="M977 1543 c-21 -65 -59 -185 -86 -268 l-48 -150 -288 -5 -287 -5 166
-120 c92 -66 186 -133 209 -150 24 -16 53 -38 66 -47 l23 -16 -90 -273 c-50
-150 -90 -274 -89 -276 1 -1 107 75 235 168 l232 170 63 -44 c34 -25 139 -101
232 -170 94 -69 171 -124 172 -123 1 1 -38 124 -86 274 l-89 273 72 52 c39 29
142 104 230 167 l158 115 -286 3 -285 2 -88 270 c-48 149 -90 270 -93 270 -3
0 -22 -53 -43 -117z"/>
</g>
</svg>
